<?xml version="1.0" standalone="no"?>
<!DOCTYPE svg PUBLIC "-//W3C//DTD SVG 1.1//EN" "http://www.w3.org/Graphics/SVG/1.1/DTD/svg11.dtd" >
<svg>
<metadata>
Created by FontForge 20090622 at Thu Nov 29 21:32:21 2018
 By deploy user
Copyright (c) 2011, Cyreal (www.cyreal.org)with Reserved Font Name "Alike" and "Alike Angular".
</metadata>
<defs>
<font id="AlikeAngular-Regular" horiz-adv-x="753" >
  <font-face 
    font-family="Alike Angular"
    font-weight="400"
    font-stretch="normal"
    units-per-em="1000"
    panose-1="2 0 0 0 0 0 0 0 0 0"
    ascent="800"
    descent="-200"
    x-height="505"
    cap-height="710"
    bbox="-24 -270 1055 977"
    underline-thickness="50"
    underline-position="-50"
    unicode-range="U+0020-U+2212"
  />
<missing-glyph horiz-adv-x="529" 
d="M50 0v500h414v-500h-414zM112 438v-376h290v376h-290z" />
    <glyph glyph-name=".notdef" horiz-adv-x="529" 
d="M50 0v500h414v-500h-414zM112 438v-376h290v376h-290z" />
    <glyph glyph-name=".null" horiz-adv-x="0" 
 />
    <glyph glyph-name="nonmarkingreturn" horiz-adv-x="260" 
 />
    <glyph glyph-name="space" unicode=" " horiz-adv-x="237" 
 />
    <glyph glyph-name="exclam" unicode="!" horiz-adv-x="254" 
d="M92 365l-23 315l15 39h88l13 -39l-26 -281l-8 -229h-46zM80 92l46 22l48 -16l22 -54l-28 -44l-47 -19l-44 27l-21 45z" />
    <glyph glyph-name="quotedbl" unicode="&#x22;" horiz-adv-x="360" 
d="M232 438l-29 269l50 17l50 -17l-31 -269h-40zM75 438l-29 269l50 17l50 -17l-31 -269h-40z" />
    <glyph glyph-name="numbersign" unicode="#" horiz-adv-x="528" 
d="M83 215l-87 -5l11 56l91 -5l52 158l-107 -5l11 56l111 -5q12 36 20.5 64.5l16.5 55.5l16.5 55.5l19.5 64.5h61l-23.5 -64.5l-20.5 -55.5l-20.5 -55.5t-22.5 -64.5h163q12 36 19.5 64.5l14.5 55.5l15 55.5l19 64.5h61l-23.5 -64.5l-20.5 -55.5l-20.5 -55.5t-22.5 -64.5
l102 5l-11 -56l-106 5l-47 -158l117 5l-11 -56l-120 5l-33 -107.5l-32 -107.5h-61l78 215h-158l-32.5 -107.5l-31.5 -107.5h-61zM175 347l-26 -86h159l21 76l31 82h-163z" />
    <glyph glyph-name="dollar" unicode="$" horiz-adv-x="542" 
d="M366 72l38 53l-2 86l-43 46l-255 134l-44 105l8 91l56 75l133 45l3 83h75l-19 -84l99 -8l46 4l-8 -50l1 -127l-36 -8l-25 129l-115 15l-108 -49l-17 -55l21 -82l250 -131l72 -75l4 -153l-75 -93l-121 -26l8 -81h-74l6 81l-132 16l-46 7l8 38l9 127l36 7l15 -128l109 -20z
" />
    <glyph glyph-name="percent" unicode="%" horiz-adv-x="732" 
d="M313 649l22 -106l-31 -109l-82 -62h-72l-88 64l-28 107l33 117l85 60h74zM128 657l-27 -105l28 -117l34 -30h45l33 29l28 118l-32 113l-29 22h-45zM671 253l22 -106l-31 -109l-82 -62h-72l-88 64l-28 107l33 117l85 60h74zM486 261l-27 -105l28 -117l34 -30h45l33 29
l28 118l-32 113l-29 22h-45zM255 0l-67 -7l290 707l67 6z" />
    <glyph glyph-name="ampersand" unicode="&#x26;" horiz-adv-x="731" 
d="M485 78l-97 -64l-121 -29l-135 37l-82 86v111l56 99l110 69l-68 118v69l43 82l79 44h77l70 -31l50 -63v-69l-32 -76l-92 -92l70 -98l92 -85l43 105l14 60l-68 16l5 35l103 -5l106 5l-5 -35l-67 -16l-41 -73l-56 -129l89 -93l97 -26l-5 -35q-14 1 -35.5 1.5t-45 1.5
t-45.5 1.5t-36 0.5zM201 75l139 -24l108 66l-148 179l-58 57l-84 -84l-14 -105zM249 631l-21 -56l11 -66l78 -108l69 94l5 82l-23 56l-61 21z" />
    <glyph glyph-name="quotesingle" unicode="'" horiz-adv-x="191" 
d="M75 438l-29 269l50 17l50 -17l-31 -269h-40z" />
    <glyph glyph-name="parenleft" unicode="(" horiz-adv-x="284" 
d="M36 394l54 196l147 200l29 -22l-114 -237l-32 -249l42 -274l104 -206l-29 -22l-124 156l-77 216v242z" />
    <glyph glyph-name="parenright" unicode=")" horiz-adv-x="284" 
d="M251 152l-77 -216l-124 -156l-29 22l104 206l42 274l-32 249l-114 237l29 22l147 -200l54 -196v-242z" />
    <glyph glyph-name="asterisk" unicode="*" horiz-adv-x="432" 
d="M231 553l115 84l26 -22l6 -33l-131 -56l130 -58l-7 -33l-25 -21l-115 84l15 -140l-31 -11l-31 11l16 142l-115 -84l-25 22l-6 33l131 56l-130 58l6 33l25 21l115 -85l-15 141l32 11l31 -11z" />
    <glyph glyph-name="plus" unicode="+" horiz-adv-x="485" 
d="M271 350l169 6l-9 -64l-158 -6l6 -172l-66 9l-6 161l-166 -6l9 64l155 6l-6 172l66 -9z" />
    <glyph glyph-name="comma" unicode="," horiz-adv-x="235" 
d="M68 90l46 18l46 -19l23 -31l9 -59l-24 -97l-63 -67l-26 28l49 58l2 64h-45l-31 26l-9 42z" />
    <glyph glyph-name="hyphen" unicode="-" horiz-adv-x="526" 
d="M334 295l-269 -17l9 64l153 1l237 13l-9 -64z" />
    <glyph glyph-name="period" unicode="." horiz-adv-x="220" 
d="M68 90l46 18l46 -19l14 -50l-24 -42l-50 -14l-38 24l-17 46z" />
    <glyph glyph-name="slash" unicode="/" horiz-adv-x="466" 
d="M301 538l56 162l80 7l-271 -642l-54 -157l-81 -8z" />
    <glyph glyph-name="zero" unicode="0" horiz-adv-x="610" 
d="M450 30l-101 -42h-86l-121 54l-73 128l-18 108v166l73 169l115 97l106 4l86 -37l90 -104l37 -201l-7 -155l-45 -114zM255 664l-63 -93l-40 -180l19 -188l34 -118l64 -56h71l63 47l30 91l20 181l-32 237l-78 87z" />
    <glyph glyph-name="one" unicode="1" horiz-adv-x="360" 
d="M235 576l-5 -252l2 -187l6 -87l95 -20l-5 -35l-139 5l-142 -5l2 35l85 11l6 121l-1 352l-7 107h-103l3 41l176 39l37 -11z" />
    <glyph glyph-name="two" unicode="2" horiz-adv-x="518" 
d="M410 72l22 106l32 -3l14 -185l-79 10h-316l-15 -10l-36 10l6 55l259 308l57 177l-20 101l-118 21l-91 -21l-13 -125l-42 -9l-25 172l178 41l158 -25l70 -68l10 -128l-89 -167l-253 -267l3 -3z" />
    <glyph glyph-name="three" unicode="3" horiz-adv-x="512" 
d="M449 102l-95 -89l-141 -29l-82 8l-86 29l25 164l36 -5l17 -129l82 -18l112 29l45 116l-24 94l-78 59l-81 12v40l77 17l62 58l19 100l-27 71l-74 36l-101 -22l-19 -123l-36 -5l-23 158l153 47l120 -16l88 -74l11 -87l-22 -75l-44 -62l-83 -34v-4l117 -33l63 -92z" />
    <glyph glyph-name="four" unicode="4" horiz-adv-x="560" 
d="M341 597l-60 -98l-103 -154l-68 -78l235 1l-6 210l5 119h-3zM343 107v101l-302 -10l-12 44l115 150l220 328l69 18l11 -36l-10 -56v-273l5 -101l104 6l-10 -83l-99 7v-103l5 -49l72 -20l-5 -35l-122 5l-123 -5l2 35l73 17z" />
    <glyph glyph-name="five" unicode="5" horiz-adv-x="502" 
d="M451 130l-77 -99l-137 -50l-112 13l-79 38l29 159l36 -5l13 -131l90 -23l91 27l54 73l8 114l-61 96l-102 24l-95 -13l-36 2l2 226l-6 125l85 -6h217l26 14h31l-18 -114l-283 10l4 -194l86 17l138 -23l96 -96l19 -94z" />
    <glyph glyph-name="six" unicode="6" horiz-adv-x="546" 
d="M148 411l137 57l122 -19l72 -54l37 -106v-117l-37 -101l-109 -80l-108 -9l-76 21l-86 76l-40 88l-20 117l25 188l113 156l118 70l142 22l6 -54l-113 -22l-107 -69l-70 -118zM142 368l-7 -57l7 -97l44 -133l86 -49h61l71 54l20 139l-33 138l-101 49z" />
    <glyph glyph-name="seven" unicode="7" horiz-adv-x="475" 
d="M102 628l-21 -108h-39l-10 105l-15 85l88 -10h283l88 10l-7 -50l-200 -508l-40 -152l-14 -20l-116 20l185 371l105 268l-3 3z" />
    <glyph glyph-name="eight" unicode="8" horiz-adv-x="547" 
d="M505 132l-70 -103l-118 -41h-91l-53 11l-84 46l-48 85v91l71 93l74 47l-71 58l-42 73l11 110l60 75l86 34l108 1l101 -59l36 -117l-47 -101l-75 -60l88 -56l64 -74v-113zM131 218l1 -68l31 -84l115 -40l99 25l40 68l-3 82l-55 66l-129 69l-63 -54zM360 639l-84 32
l-79 -20l-37 -61l1 -73l41 -57l107 -59l55 59l21 83z" />
    <glyph glyph-name="nine" unicode="9" horiz-adv-x="546" 
d="M379 290l-137 -56l-122 19l-72 54l-37 106v117l37 101l109 80l108 9l76 -21l86 -76l40 -88l20 -117l-25 -188l-113 -156l-118 -70l-142 -22l-6 54l113 22l107 69l70 118zM237 290l147 44l8 57l-7 97l-44 133l-86 49h-61l-71 -54l-20 -139l33 -138z" />
    <glyph glyph-name="colon" unicode=":" horiz-adv-x="250" 
d="M68 420l46 18l46 -19l14 -50l-24 -42l-50 -14l-38 24l-17 46zM68 87l46 18l46 -19l14 -50l-24 -42l-50 -14l-38 24l-17 46z" />
    <glyph glyph-name="semicolon" unicode=";" horiz-adv-x="272" 
d="M68 420l46 18l46 -19l14 -50l-24 -42l-50 -14l-38 24l-17 46zM68 90l46 18l46 -19l23 -31l9 -59l-24 -97l-63 -67l-26 28l49 58l2 64h-45l-31 26l-9 42z" />
    <glyph glyph-name="less" unicode="&#x3c;" horiz-adv-x="541" 
d="M477 492l-100 -48l-262 -152l260 -127l114 -45l4 -85l-121 68l-333 162l-1 50l299 172l136 90z" />
    <glyph glyph-name="equal" unicode="=" horiz-adv-x="542" 
d="M208 356l-135 -11l8 63l251 4l139 10l-9 -63zM214 201l-136 -11l9 63l251 4l138 10l-8 -63z" />
    <glyph glyph-name="greater" unicode="&#x3e;" horiz-adv-x="541" 
d="M53 573l138 -87l302 -167v-50l-330 -168l-120 -70l2 85l113 47l258 132l-264 147l-101 46z" />
    <glyph glyph-name="question" unicode="?" horiz-adv-x="432" 
d="M164 164l-44 111l22 76l129 151l21 74l-15 58l-44 30l-68 3l-53 -21l-22 -117l-34 -1l-13 135l81 33l89 9l59 -5l63 -25l46 -57v-74l-20 -54l-140 -142l-31 -47l-8 -52l15 -75zM150 92l46 22l48 -16l22 -54l-28 -44l-47 -19l-44 27l-21 45z" />
    <glyph glyph-name="at" unicode="@" horiz-adv-x="830" 
d="M452 378l-49 -22l-61 -95l-26 -127l16 -63l37 -19l99 72l32 224zM478 65h-1l-134 -80l-78 36l-35 110l29 143l103 125l101 27l64 -16l36 13l20 -25l-54 -297l48 -72l96 52l36 155l-23 181l-128 103l-121 21l-105 -20l-103 -70l-76 -141l-15 -165l31 -135l59 -67l67 -49
l143 -33l82 13l96 35l18 -37l-102 -47l-112 -19l-171 39l-76 56l-80 84l-43 174l28 171l93 148l146 92l160 21l132 -33l138 -109l35 -213l-51 -188l-188 -77z" />
    <glyph glyph-name="A" unicode="A" horiz-adv-x="684" 
d="M283 632l19 88l49 8l140 -370l129 -308l84 -20l-5 -40l-122 10l-152 -10l2 40l82 20l-70 190l-121 4l-115 -4l-65 -190l76 -20l-5 -40l-122 10l-92 -10l2 40l78 20l118 307zM312 597l-91 -302l97 -4l101 4l-64 160l-41 142h-2z" />
    <glyph glyph-name="B" unicode="B" horiz-adv-x="636" 
d="M484 135l-14 148l-68 48l-70 11h-120l10 -297l115 -5l71 15zM332 392l104 55l11 109l-51 83l-60 16l-117 -3l-7 -265zM337 700l116 -15l94 -95v-94l-54 -81l-94 -39v-2l102 -22l74 -76l19 -72l-38 -133l-100 -58l-123 -18l-161 5l-137 -10l2 35l80 25l10 307l-10 293
l-82 24l5 35l127 -9h170z" />
    <glyph glyph-name="C" unicode="C" horiz-adv-x="646" 
d="M614 70l-100 -68l-190 -22l-189 90l-71 129l-20 129v102l54 131l129 122l137 38h112l153 -39l-18 -51l-14 -121l-38 -3l-23 140l-74 19h-120l-150 -128l-33 -164l14 -152l58 -107l104 -82l163 14l93 56z" />
    <glyph glyph-name="D" unicode="D" horiz-adv-x="739" 
d="M172 0l-137 -5l2 35l80 20l10 282l-10 318l-77 20l5 35l122 -5l180 9l120 -27l155 -86l60 -123l11 -123l-53 -224l-168 -111l-125 -23zM348 45l119 34l81 78l31 193l-19 172l-95 101l-116 32h-127l-9 -124l9 -486h126z" />
    <glyph glyph-name="E" unicode="E" horiz-adv-x="625" 
d="M214 330l8 -292l289 7l30 133l35 -9l4 -124l7 -55l-121 10h-294l-137 -10l2 35l80 25l10 307l-10 293l-81 24l5 35l126 -9h288l97 10l-9 -49l-2 -131l-36 -8l-26 133l-257 8l-8 -281l195 6l19 95l40 -13l-10 -114l10 -121l-40 6l-19 99z" />
    <glyph glyph-name="F" unicode="F" horiz-adv-x="561" 
d="M543 710l-10 -49l-1 -131l-36 -8l-26 133l-248 8l-10 -271l167 5l20 96l40 -15l-10 -114l10 -121l-40 8l-19 99l-168 -10l10 -291l93 -19l-5 -35l-143 5l-132 -10l2 35l80 25l10 307l-10 293l-81 24l5 35l126 -9h279z" />
    <glyph glyph-name="G" unicode="G" horiz-adv-x="716" 
d="M521 60l-6 190l-77 20l5 40l126 -10l123 10l5 -40l-77 -20l-7 -208l-99 -40l-190 -22l-189 90l-71 129l-20 129v102l54 131l129 122l137 38h112l153 -39l-18 -51l-14 -121l-38 -3l-23 140l-74 19h-120l-150 -128l-33 -164l14 -152l58 -107l104 -82l163 14z" />
    <glyph glyph-name="H" unicode="H" horiz-adv-x="779" 
d="M661 50l77 -20l-5 -35l-122 5l-137 -5l2 35l80 20l10 290l-172 5l-183 -5l7 -291l80 -19l-10 -37l-117 7l-136 -7l6 37l79 19l6 317l-10 284l-77 20l5 40l122 -10l137 10l-2 -40l-80 -20l-10 -255l183 -3l172 3l-10 255l-77 20l5 40l122 -10l137 10l-2 -40l-80 -20
l-10 -284z" />
    <glyph glyph-name="I" unicode="I" horiz-adv-x="339" 
d="M220 141l6 -91l73 -20l-5 -40l-122 10l-137 -10l2 40l75 20l7 108l4 206l-3 197l-7 89l-73 20l5 40l122 -10l137 10l-2 -40l-76 -20l-7 -87l-4 -201z" />
    <glyph glyph-name="J" unicode="J" horiz-adv-x="324" 
d="M117 538l-6 112l-77 20l5 40l122 -10l137 10l-2 -40l-80 -20l-7 -252l7 -289l-36 -100l-62 -59l-107 -56l-20 25l102 78l22 111z" />
    <glyph glyph-name="K" unicode="K" horiz-adv-x="666" 
d="M346 389l235 -330l96 -29l-5 -40l-122 10l-152 -10l2 40l75 19l-40 70l-143 205l-80 -10l5 -264l82 -20l-5 -40l-122 10l-137 -10l2 40l83 20l7 286l-8 314l-79 20l5 40l122 -10l137 10l-2 -40l-84 -20l-7 -290l59 9l175 221l33 64l-63 16l5 40l124 -10l104 10l-2 -40
l-96 -33z" />
    <glyph glyph-name="L" unicode="L" horiz-adv-x="548" 
d="M172 0l-133 -10l2 40l76 20l10 306l-10 294l-77 20l5 40l122 -10l137 10l-2 -40l-80 -20l-10 -294l10 -310l244 19l25 123l35 -3l5 -130l7 -55l-121 10z" />
    <glyph glyph-name="M" unicode="M" horiz-adv-x="918" 
d="M107 138l39 512l-82 20l5 35l122 -5h65v-20l156 -389l45 -131h2l40 124l158 396v20h60l137 5l-2 -35l-83 -20l44 -500l18 -102l68 -18l-5 -35l-122 5l-137 -5l2 35l72 17l3 93l-9 150l-28 300h-5l-39 -122l-163 -422l16 -46l-48 -20l-19 47l-186 444l-39 119h-4l-21 -323
l-4 -131l2 -87l73 -20l-5 -35l-105 6l-107 -5l2 35l69 20z" />
    <glyph glyph-name="N" unicode="N" horiz-adv-x="757" 
d="M618 700l110 10l-2 -40l-77 -17l-5 -76l8 -597l-30 -10l-17 30l-241 307l-154 194l-40 76h-2l3 -85v-360l1 -85l76 -18l-5 -39l-105 10l-102 -10l2 40l68 16l8 86l7 518l-82 20l5 40l122 -10h50l28 -62l265 -353l84 -136h2l-1 96l-3 329l-5 79l-73 17l5 40z" />
    <glyph glyph-name="O" unicode="O" 
d="M465 715l151 -84l73 -122l21 -165l-51 -208l-132 -126l-152 -34l-162 36l-124 128l-33 94l-12 184l43 131l72 101l148 65h158zM376 26l119 20l86 158l20 138l-15 132l-49 115l-106 81l-129 -9l-91 -80l-26 -61l-23 -86l4 -198l80 -152z" />
    <glyph glyph-name="P" unicode="P" horiz-adv-x="590" 
d="M212 292l10 -242l97 -20l-5 -40l-142 10l-137 -10l2 40l83 20l7 256l-5 344l-82 20l5 40l122 -10l134 11l82 -6l81 -26l79 -60l25 -103l-18 -111l-61 -70l-176 -55zM219 655l-6 -319l88 -11l135 57l29 113l-21 92l-79 77z" />
    <glyph glyph-name="Q" unicode="Q" 
d="M465 715l151 -84l73 -122l21 -165l-51 -208l-132 -126l-112 -25l102 -64l97 -40l112 -14l81 21l12 -22l-75 -52l-73 -25l-93 20l-92 50l-147 125l-126 28l-124 128l-33 94l-12 184l43 131l72 101l148 65h158zM376 26l119 20l86 158l20 138l-15 132l-49 115l-106 81
l-129 -9l-91 -80l-26 -61l-23 -86l4 -198l80 -152z" />
    <glyph glyph-name="R" unicode="R" horiz-adv-x="652" 
d="M212 318l10 -268l97 -20l-5 -40l-142 10l-137 -10l2 40l83 20l7 256l-5 344l-82 20l5 40l122 -10l134 11l82 -6l81 -26l79 -60l25 -103l-18 -111l-61 -44l-66 -19l143 -303h78l6 -33l-117 -24l-65 53l-124 285l-31 -8zM219 655l-6 -293l88 -5l135 51l29 87l-21 92l-79 77
z" />
    <glyph glyph-name="S" unicode="S" horiz-adv-x="545" 
d="M366 63l39 54l-2 89l-45 48l-254 141l-46 108l9 94l57 77l139 46l153 -12l47 4l-8 -51l1 -131l-37 -8l-26 132l-118 16l-101 -38l-23 -66l22 -85l252 -138l74 -77l4 -158l-77 -96l-147 -32l-185 22l-47 7l8 39l9 131l37 8l16 -132l122 -21z" />
    <glyph glyph-name="T" unicode="T" horiz-adv-x="623" 
d="M124 700h378l117 10l-15 -69l-6 -126l-46 -3l-16 143l-175 9l-9 -336l6 -188l5 -90l77 -25l-7 -35l-122 10l-137 -10l2 35l82 24l1 103l7 284l-10 228l-166 -9l-16 -143l-46 3l-6 126l-15 69z" />
    <glyph glyph-name="U" unicode="U" horiz-adv-x="745" 
d="M645 588l-4 -313l-21 -170l-96 -104l-77 -18h-116l-137 29l-74 105l-19 148l8 294l-5 91l-80 20l5 40l122 -10l137 10l-2 -40l-67 -20l-11 -95l-8 -229l7 -159l45 -90l125 -47l114 18l73 100l22 157l-6 275l-7 74l-64 16l5 40l102 -10l107 10l-2 -40l-69 -16z" />
    <glyph glyph-name="V" unicode="V" horiz-adv-x="673" 
d="M562 537l-171 -501l-41 -61l-33 -4l-21 92l-103 278l-91 215l-51 96l-66 18l5 40l137 -10l133 10l-2 -40l-70 -16l20 -86l119 -309l39 -157h2l55 170l101 301l16 80l-69 17l5 40l103 -10l108 10l-2 -40l-71 -18z" />
    <glyph glyph-name="W" unicode="W" horiz-adv-x="992" 
d="M880 553l-139 -517l-34 -61l-33 -4l-31 92l-97 275l-55 159l-149 -461l-41 -61l-33 -4l-21 92l-90 278l-62 215l-40 96l-77 18l5 40l137 -10l133 10l-2 -40l-70 -16l20 -86l77 -309l39 -157h2l50 170l95 301l-33 77l-79 20l5 40l133 -10l133 10l-2 -40l-69 -16l19 -86
l103 -309l38 -154h2l36 167l84 301l14 80l-79 17l5 40l115 -10l106 10l-2 -40l-72 -19z" />
    <glyph glyph-name="X" unicode="X" horiz-adv-x="671" 
d="M539 601l-45 -59l-109 -167l200 -321l93 -28l-5 -36l-133 10l-152 -10l2 36l71 20l-37 77l-65 102l-45 81h-2l-51 -79l-79 -113l-34 -65l66 -19l-5 -40l-115 10l-102 -10l2 40l80 20l108 142l100 157l-135 223l-62 80l-69 18l5 40l137 -10l140 10l-2 -40l-71 -17l23 -60
l54 -87l50 -96h2l43 75l87 123l20 47l-63 15l5 40l106 -10l107 10l-2 -40l-72 -16z" />
    <glyph glyph-name="Y" unicode="Y" horiz-adv-x="655" 
d="M382 130l8 -80l81 -20l-5 -40l-132 10l-134 -10l2 40l79 18l5 81l3 162l-172 291l-60 70l-70 18l5 40l131 -10l140 10l-2 -40l-72 -16l29 -71l76 -129l51 -96h4l49 87l86 140l26 73l-72 12l5 40l113 -10l107 10l-2 -40l-73 -16l-51 -71l-162 -267z" />
    <glyph glyph-name="Z" unicode="Z" horiz-adv-x="595" 
d="M152 0l-141 -9l-5 40l53 19l178 289l148 244l49 72l-6 7l-293 -19l-30 -137l-42 9l-6 126l-15 69l117 -10h286l138 9l5 -43l-59 -14l-100 -172l-275 -432l6 -8l319 21l25 129l38 -9l6 -122l15 -69l-117 10h-294z" />
    <glyph glyph-name="bracketleft" unicode="[" horiz-adv-x="290" 
d="M280 744v-54l-119 5l15 -384l-15 -404l119 5v-53l-197 5l14 450l-14 425z" />
    <glyph glyph-name="backslash" unicode="\" horiz-adv-x="461" 
d="M139 598l294 -690l-71 -8l-62 170l-267 630l71 9z" />
    <glyph glyph-name="bracketright" unicode="]" horiz-adv-x="290" 
d="M222 739l-14 -425l14 -450l-197 -5v53l119 -5l-15 404l15 384l-119 -5v54z" />
    <glyph glyph-name="asciicircum" unicode="^" horiz-adv-x="481" 
d="M240 748h6l37 -41l192 -187l-70 -44l-69 89l-92 104h-2l-86 -98l-80 -99l-65 48l165 156z" />
    <glyph glyph-name="underscore" unicode="_" horiz-adv-x="654" 
d="M246 -120l-182 -11l9 64l337 8l181 10l-9 -64z" />
    <glyph glyph-name="grave" unicode="`" horiz-adv-x="187" 
d="M162 583l-36 -17l-82 105l-42 46l10 23l70 17z" />
    <glyph glyph-name="a" unicode="a" horiz-adv-x="496" 
d="M151 56l75 -19l101 58l-4 135h-87l-77 -31l-35 -62zM409 182l7 -141l69 -10l-7 -33l-139 -12l-13 59h-5l-99 -59h-104l-70 51l-21 98l44 78l120 52l132 5l-4 125l-19 62l-81 23l-97 -23l-3 -106l-39 -8l-26 137l115 34l129 6l78 -38l32 -86z" />
    <glyph glyph-name="b" unicode="b" horiz-adv-x="572" 
d="M165 457l7 -7l104 57l109 3l106 -81l42 -167l-30 -149l-72 -91l-144 -42l-189 25l-35 35l8 330l-1 227l-5 100l-71 -3l-5 35l138 27l50 -11zM163 153l8 -93l130 -29l99 62l29 110l-4 132l-71 103l-62 15l-127 -51z" />
    <glyph glyph-name="c" unicode="c" horiz-adv-x="484" 
d="M378 463l-126 10l-90 -96l-26 -104l13 -106l64 -116l123 -20l94 50l18 -26l-79 -63l-94 -12l-143 41l-89 145l-1 167l68 119l105 55l91 13l153 -20l-30 -157l-33 -5z" />
    <glyph glyph-name="d" unicode="d" horiz-adv-x="586" 
d="M403 45h-5l-111 -65l-111 12l-73 52l-58 119l-1 170l38 79l115 93l111 15l97 -25l-6 191l-83 8l5 35l138 27l40 -11l-7 -387l7 -317l69 -10l-7 -33l-139 -12zM256 31l147 56l2 353l-111 35l-63 -18l-77 -82l-14 -115l30 -168z" />
    <glyph glyph-name="e" unicode="e" horiz-adv-x="495" 
d="M139 269l-1 -9l27 -141l79 -78l92 -10l94 50l18 -26l-79 -63l-94 -12l-98 23l-85 71l-51 150l17 134l52 94l105 58l88 11l70 -22l54 -49l31 -89l1 -83l-14 -11l-133 -9zM189 431l-39 -76l-6 -45l152 -2l69 15l-6 93l-30 51l-64 9z" />
    <glyph glyph-name="f" unicode="f" horiz-adv-x="352" 
d="M383 723l-21 -107l-33 -5l-13 88l-8 12l-38 5l-62 -41l-13 -95v-110l143 5l-10 -50l-133 5l1 -262l5 -118l104 -20l-5 -35l-152 5l-122 -5l2 35l67 20l10 102l-4 278l-65 -5v50l66 -4l6 149l51 95l90 40l103 -12z" />
    <glyph glyph-name="g" unicode="g" horiz-adv-x="522" 
d="M488 574l32 -67l-42 -26l-83 -11l70 -86l-1 -97l-56 -83l-122 -40l-106 15l-18 -26l-4 -28l28 -18l172 -27l67 -15l67 -48l8 -119l-46 -69l-112 -51l-158 -5l-69 21l-57 50l-21 72l30 87l68 32l-36 34v69l45 53l-85 66l-10 127l83 96l127 30l101 -20zM231 207l82 11
l53 57l8 98l-44 75l-73 22l-96 -40l-28 -88l32 -99zM285 6l-116 16l-45 -49l-6 -74l45 -65l113 -17l119 45l29 97z" />
    <glyph glyph-name="h" unicode="h" horiz-adv-x="598" 
d="M188 609l-3 -164l111 68l102 7l92 -63l15 -80l-2 -211l8 -117l71 -19l-5 -35l-118 5l-122 -5l2 35l66 20l7 105l-4 218l-27 66l-85 15l-112 -57l-2 -134l2 -97l3 -116l73 -20l-5 -35l-118 5l-122 -5l2 35l66 20l9 105l-4 438l-7 104l-71 -3l-5 35l138 27l50 -11z" />
    <glyph glyph-name="i" unicode="i" horiz-adv-x="290" 
d="M86 708l46 22l48 -16l22 -54l-28 -44l-47 -19l-44 27l-21 45zM199 363l-6 -100l3 -97l4 -116l73 -20l-5 -35l-118 5l-122 -5l2 35l66 20l5 105l-2 192l-5 104l-71 -3l-5 35l138 27l50 -11z" />
    <glyph glyph-name="j" unicode="j" horiz-adv-x="261" 
d="M188 0l-23 -104l-77 -80l-93 -59l-19 40l60 46l42 63l12 94l1 155v192l-9 104l-69 -3l-5 35l138 27l50 -11l-7 -136l-4 -100zM76 708l46 22l48 -16l22 -54l-28 -44l-47 -19l-44 27l-21 45z" />
    <glyph glyph-name="k" unicode="k" horiz-adv-x="537" 
d="M319 392l46 67l-67 11l5 35l105 -5l92 5l-2 -35l-70 -22l-143 -154l83 -117l103 -127l59 -20l-5 -35l-104 5l-95 -5l2 35l48 3l-27 50l-116 154h-49l2 -71l2 -116l69 -20l-6 -35l-111 5l-128 -5l4 35l70 17l3 108l4 219l-4 223l-5 100l-71 -3l-5 35l138 27l50 -11
l-7 -132l-6 -337h31z" />
    <glyph glyph-name="l" unicode="l" horiz-adv-x="279" 
d="M189 613l-6 -350l3 -97l8 -116l73 -20l-5 -35l-122 5l-122 -5l2 35l66 20l5 105l4 219l-6 223l-5 100l-71 -3l-5 35l138 27l50 -11z" />
    <glyph glyph-name="m" unicode="m" horiz-adv-x="891" 
d="M515 49l71 -19l-5 -35l-118 5l-122 -5l2 35l66 20l7 105l-4 218l-27 66l-85 15l-99 -53l-2 -38l-6 -100l2 -97l5 -116l73 -20l-5 -35l-118 5l-122 -5l2 35l66 20l7 105l-4 192l-5 104l-71 -3l-5 35l138 27l50 -11l-3 -47l97 61l102 7l92 -63l5 -27l100 83l102 7l92 -63
l15 -80l-2 -211l8 -117l71 -19l-5 -35l-118 5l-122 -5l2 35l66 20l7 105l-4 218l-27 66l-85 15l-92 -67l2 -10l-2 -211z" />
    <glyph glyph-name="n" unicode="n" horiz-adv-x="603" 
d="M525 49l71 -19l-5 -35l-118 5l-122 -5l2 35l66 20l7 105l-4 218l-27 66l-85 15l-109 -56l-2 -35l-6 -100l2 -97l5 -116l73 -20l-5 -35l-118 5l-122 -5l2 35l66 20l7 105l-9 296l-71 -3l-5 35l138 27l50 -11l-3 -51l107 65l102 7l92 -63l15 -80l-2 -211z" />
    <glyph glyph-name="o" unicode="o" horiz-adv-x="576" 
d="M39 190v131l59 119l113 75l137 5l125 -75l65 -120l-12 -183l-74 -118l-155 -44l-130 25l-95 86zM149 355l-5 -112l12 -116l43 -75l106 -26l98 43l29 156l-10 130l-37 83l-73 37l-100 -11z" />
    <glyph glyph-name="p" unicode="p" horiz-adv-x="587" 
d="M185 455h7l107 65l111 -12l73 -52l58 -119l1 -170l-38 -79l-115 -93l-111 -15l-95 25l3 -89l8 -116l73 -20l-5 -35l-122 5l-122 -5l2 35l66 20l5 105l4 219l-6 223l-5 107l-71 -3l-5 35l138 27l38 -11zM184 60l108 -35l63 18l77 82l14 115l-30 168l-89 53l-140 -48l2 -50
z" />
    <glyph glyph-name="q" unicode="q" horiz-adv-x="566" 
d="M404 45h-8l-107 -65l-111 12l-73 52l-58 119l-1 170l38 79l115 93l111 15l104 -27v-1l90 -23l-5 -122l-6 -223l4 -219l5 -105l66 -20l2 -35l-122 5l-122 -5l-5 35l73 20l8 116l3 97zM402 441l-106 34l-63 -18l-77 -82l-14 -115l30 -168l89 -53l142 48l-4 276z" />
    <glyph glyph-name="r" unicode="r" horiz-adv-x="431" 
d="M202 418h4l62 71l68 30l75 -19l-17 -149l-35 7l-25 103l-65 -21l-71 -83l-5 -94l3 -97l4 -116l100 -20l-5 -35l-145 5l-122 -5l2 35l66 20l5 105l-2 192l-5 104l-71 -3l-5 35l138 27l50 -11z" />
    <glyph glyph-name="s" unicode="s" horiz-adv-x="432" 
d="M107 39l83 -13l93 13l22 68l-27 52l-186 113l-40 63l-2 106l71 60l105 19l147 -30l-21 -147l-42 14l-19 104l-69 13l-75 -17l-19 -55l24 -59l192 -110l47 -59l4 -94l-68 -80l-120 -20l-83 4l-93 36l25 144l43 -14z" />
    <glyph glyph-name="t" unicode="t" horiz-adv-x="323" 
d="M261 -10l-68 -10l-71 24l-32 80l5 186l-5 168l-69 10l-6 35l79 21l36 101h51l-3 -112l121 -4l-6 -44l-105 -7l-4 -46l4 -303l20 -60l94 25l15 -30z" />
    <glyph glyph-name="u" unicode="u" horiz-adv-x="590" 
d="M183 345v-218l27 -66l84 -11l109 65v106l-1 125l-5 104l-71 -3l-5 35l138 27l50 -11l-7 -136l-1 -80l2 -61v-180l70 -20l-5 -35h-137l-23 84l-113 -83l-102 -7l-92 63l-15 80l1 214l-10 114l-71 -3l-5 35l138 27l50 -11z" />
    <glyph glyph-name="v" unicode="v" horiz-adv-x="565" 
d="M106 364l-45 88l-67 18l5 35l122 -5l129 5l-2 -35l-63 -20l16 -58l65 -167l40 -146h3l27 102l79 208l16 64l-71 17l5 35l91 -5l106 5l-2 -35l-62 -20l-43 -92l-123 -329l-30 -52l-33 -7z" />
    <glyph glyph-name="w" unicode="w" horiz-adv-x="832" 
d="M114 364l-45 88l-67 18l5 35l122 -5l122 5l-2 -35l-68 -20l16 -58l54 -167l40 -146h3l27 102l76 215l-28 56l-67 18l5 35l122 -5l122 5l-2 -35l-68 -20l16 -58l48 -167l40 -146h3l27 102l70 208l16 64l-78 17l5 35l98 -5l106 5l-2 -35l-62 -20l-43 -92l-107 -329l-31 -52
l-33 -7l-128 358l-102 -299l-31 -52l-33 -7z" />
    <glyph glyph-name="x" unicode="x" horiz-adv-x="550" 
d="M232 233l-111 163l-47 57l-67 17l5 35l122 -5l129 5l-2 -35l-67 -16l16 -38l77 -117h4l34 50l49 61l24 43l-71 17l5 35l109 -5l105 5l-2 -35l-62 -17l-47 -48l-113 -140l148 -215l67 -20l-5 -35l-112 5l-122 -5l2 35l52 16l-24 51l-49 68l-21 31h-3l-69 -100l-30 -49
l60 -17l-5 -35l-98 5l-102 -5l2 35l72 20z" />
    <glyph glyph-name="y" unicode="y" horiz-adv-x="573" 
d="M114 -270l-31 45l-30 82l38 14l56 -83l51 49l70 160l-155 397l-35 61l-71 15l5 35l122 -5l119 5l-2 -35l-58 -17l15 -62l54 -138l55 -161h3l50 157l51 143l10 64l-56 14l5 35l107 -5l85 5l-2 -35l-61 -18l-35 -75l-149 -398l-86 -165l-75 -74z" />
    <glyph glyph-name="z" unicode="z" horiz-adv-x="469" 
d="M130 40l227 18l26 112l33 -3l13 -106l13 -70l-82 9h-251l-100 -6v34l45 41l249 378l-5 12l-182 -11l-22 -97l-35 6l-10 90l-8 65l81 -12h300l14 -37l-32 -26l-66 -105l-212 -286z" />
    <glyph glyph-name="braceleft" unicode="{" horiz-adv-x="309" 
d="M102 304l77 -40l28 -88v-199l17 -51l54 -20v-41l-78 12l-53 33l-23 78v202l-33 73l-88 18v53l88 18l33 73v202l22 71l44 40l88 12v-41l-54 -20l-17 -51v-199l-28 -88l-77 -40v-7z" />
    <glyph glyph-name="bar" unicode="|" horiz-adv-x="224" 
d="M86 -77l-15 846l74 -9l-6 -202l14 -798l-74 9z" />
    <glyph glyph-name="braceright" unicode="}" horiz-adv-x="309" 
d="M219 311l-77 40l-28 88v199l-17 51l-54 20v41l88 -12l44 -40l22 -71v-202l33 -73l88 -18v-53l-88 -18l-33 -73v-202l-23 -78l-53 -33l-78 -12v41l54 20l17 51v199l28 88l77 40v7z" />
    <glyph glyph-name="asciitilde" unicode="~" horiz-adv-x="491" 
d="M306 542l-138 106l-47 5l-40 -66l-49 4l39 97l69 22l54 -10l145 -97l47 7l24 74l49 -10l-22 -85l-60 -50z" />
    <glyph glyph-name="nonbreakingspace" unicode="&#xa0;" horiz-adv-x="237" 
 />
    <glyph glyph-name="exclamdown" unicode="&#xa1;" horiz-adv-x="254" 
d="M80 164.022l-23 -314.981l15 -38.9971h88l13 38.9971l-26 280.983l-8 228.986h-46zM68 437.006l46 -21.999l48 15.999l22 53.9971l-28 43.9971l-47 18.999l-44 -26.999l-21 -44.9971z" />
    <glyph glyph-name="cent" unicode="&#xa2;" horiz-adv-x="517" 
d="M385 550l-126 10l-90 -96l-26 -104l13 -106l64 -116l123 -20l94 50l18 -26l-79 -63l-52 -7l11 -108l-74 -2l6 109l-128 37l-89 145l-1 167l68 119l105 55l47 7l-8 109h75l-12 -105l142 -18l-30 -157l-33 -5z" />
    <glyph glyph-name="sterling" unicode="&#xa3;" horiz-adv-x="568" 
d="M439 55l27 123l36 7l16 -191l-61 6h-278l-133 -5l2 35l76 20l6 258l-56 -4l10 50l46 -4l6 210l69 125l146 32l137 -32l-10 -137l-26 -6l-26 118l-67 18l-92 -24l-38 -79l-6 -225l166 4l-10 -50l-156 3l6 -262z" />
    <glyph glyph-name="currency" unicode="&#xa4;" horiz-adv-x="570" 
d="M430 458l39 -98l-47 -105l78 -65l-51 -53l-70 77l-95 -39l-100 41l-66 -78l-53 51l76 69l-40 101l41 97l-76 64l51 53l66 -75l104 46l102 -43l59 71l53 -51zM384 451l-100 40l-90 -32l-37 -99l31 -94l97 -38l94 37l34 95z" />
    <glyph glyph-name="yen" unicode="&#xa5;" horiz-adv-x="739" 
d="M420 288l2 -67l135 5l-10 -50l-123 5l2 -51l8 -80l81 -20l-5 -40l-132 10l-134 -10l2 40l79 18l5 81l-1 55l-137 -8l10 50l127 -3v66l-137 -3l10 50l102 -3l-143 249l-60 70l-70 18l5 40l131 -10l140 10l-2 -40l-72 -16l29 -71l76 -129l51 -105h4l49 96l86 140l26 73
l-72 12l5 40l113 -10l107 10l-2 -40l-73 -16l-51 -71l-153 -252l129 5l-10 -50z" />
    <glyph glyph-name="brokenbar" unicode="&#xa6;" horiz-adv-x="230" 
d="M78 371l-7 398l74 -9l-6 -202l3 -198zM145 192l8 -432l-74 9l7 154l-5 277z" />
    <glyph glyph-name="section" unicode="&#xa7;" horiz-adv-x="510" 
d="M195 548l183 -104l62 -66l11 -102l-79 -103l64 -57l20 -110l-68 -103l-78 -33l-92 -12l-149 38l18 158l45 -5l13 -126l99 -23l91 32l24 81l-18 60l-269 163l-20 144l81 93l-71 98l18 105l72 75l124 24l123 -21l31 -38l-18 -132l-45 4l-11 131l-84 15l-84 -35l-32 -85z
M141 383l21 -96l161 -88l45 94l-33 71l-162 87z" />
    <glyph glyph-name="dieresis" unicode="&#xa8;" horiz-adv-x="346" 
d="M30 691l44 21l47 -15l21 -52l-27 -42l-45 -18l-43 26l-20 43zM195 691l45 21l46 -15l21 -52l-27 -42l-45 -18l-42 26l-21 43z" />
    <glyph glyph-name="copyright" unicode="&#xa9;" horiz-adv-x="705" 
d="M352 500l129 -26l-15 -105l-33 3l-12 86l-82 7l-62 -57l-21 -112l19 -90l73 -63l124 33l13 -20l-61 -44l-101 -8l-85 36l-59 106v114l68 106zM226 588l126 27l129 -29l98 -76l54 -96l18 -108l-22 -116l-67 -103l-98 -65l-112 -22l-138 33l-89 72l-54 91l-19 110l21 115
l62 100zM239 551l-69 -56l-56 -85l-17 -103l13 -87l40 -81l85 -73l118 -28l97 19l85 59l54 90l17 101l-15 98l-47 84l-79 62l-112 26z" />
    <glyph glyph-name="ordfeminine" unicode="&#xaa;" horiz-adv-x="393" 
d="M130 429l47 -10l58 37v87l-102 -20l-23 -51zM307 427l45 -13l-3 -33h-100l-12 38h-4l-69 -38h-66l-52 51v63l47 61l142 22v73l-58 38l-61 -16l-5 -58l-36 -3l-12 84l114 22l86 -9l44 -54v-228z" />
    <glyph glyph-name="guillemotleft" unicode="&#xab;" horiz-adv-x="574" 
d="M39 301l135 120l90 91l43 -26l-106 -112l-71 -87v-4l66 -73l125 -115l-41 -28l-92 81l-147 113zM249 309l123 109l102 99l43 -25l-110 -119l-60 -79v-4l59 -66l135 -128l-41 -29l-114 98l-135 104z" />
    <glyph glyph-name="logicalnot" unicode="&#xac;" horiz-adv-x="624" 
d="M486 167l-1 131l-208 2l-208 -16l6 63l307 6l163 10l7 -205z" />
    <glyph glyph-name="uni00AD" unicode="&#xad;" horiz-adv-x="356" 
d="M223 293l-159 -12l9 64l63 -5l157 13l-9 -64z" />
    <glyph glyph-name="registered" unicode="&#xae;" horiz-adv-x="705" 
d="M227 588l126 27l129 -29l98 -76l54 -96l18 -108l-22 -116l-67 -103l-98 -65l-112 -22l-138 33l-89 72l-54 91l-19 110l21 115l62 100zM240 551l-69 -56l-56 -85l-17 -103l13 -87l40 -81l85 -73l118 -28l97 19l85 59l54 90l17 101l-15 98l-47 84l-79 62l-112 26zM265 310
l-5 135l-37 10l2 22l65 -2l83 3l60 -21l37 -45v-50l-26 -42l-41 -20l70 -137l37 -4l-1 -20l-47 -6l-38 24l-62 134l-56 -1l4 -123l37 -10l-2 -20l-59 2l-67 -2l1 20l40 10zM399 430l-40 22l-49 -7l-4 -127l47 -3l43 14l19 52z" />
    <glyph glyph-name="macron" unicode="&#xaf;" horiz-adv-x="530" 
d="M183 568l-182 -11l9 64l337 8l181 10l-9 -64z" />
    <glyph glyph-name="degree" unicode="&#xb0;" horiz-adv-x="353" 
d="M274 660l41 -98l-37 -95l-102 -44l-103 47l-34 91l36 94l104 45zM243 630l-67 30l-61 -26l-26 -72l17 -61l71 -38l62 27l26 72z" />
    <glyph glyph-name="plusminus" unicode="&#xb1;" horiz-adv-x="514" 
d="M285 353l169 6l-9 -64l-158 -6l5 -150l-66 9l-5 139l-166 -6l9 64l155 6l-6 172l66 -9zM198 50l-136 -11l9 63l251 4l139 10l-9 -63z" />
    <glyph glyph-name="twosuperior" unicode="&#xb2;" horiz-adv-x="389" 
d="M276 377l19 82l27 -10l5 -142l-272 7l-10 63l135 109l54 84l1 82l-62 38l-64 -13l-10 -87l-31 7l-9 103l106 26l89 -7l61 -54v-89l-83 -107l-119 -99v-3z" />
    <glyph glyph-name="threesuperior" unicode="&#xb3;" horiz-adv-x="385" 
d="M257 462l-66 34l-41 5v41l35 7l56 33v74l-56 33l-72 -12l-10 -88l-34 8l-9 103l106 27l88 -9l64 -52v-67l-31 -43l-61 -26v-2l72 -23l41 -45v-80l-46 -48l-110 -28l-128 27l9 103l27 9l15 -87l100 -13l51 39v80z" />
    <glyph glyph-name="acute" unicode="&#xb4;" horiz-adv-x="203" 
d="M82 757l70 -17l10 -23l-42 -46l-82 -105l-36 17z" />
    <glyph glyph-name="mu" unicode="&#xb5;" horiz-adv-x="623" 
d="M133 27l41 -137l8 -62l-75 -5l-4 82l-4.5 75.5l-4.5 75.5l2 281l-9 163l61 10l50 -11l-6 -154v-218l27 -66l84 -11l112 67v104l-1 125l-4 154l61 9l50 -9l-7 -138l-1 -321l79 -20l-5 -35h-144l-23 85h-1l-115 -84l-102 -7z" />
    <glyph glyph-name="paragraph" unicode="&#xb6;" horiz-adv-x="551" 
d="M355 700l137 5l-2 -35l-80 -20v-272l20 -468h-65l-4 370l-16 370h-48l20 -740h-65l-10 371l-116 30l-80 96v158l96 107l125 28h88z" />
    <glyph glyph-name="periodcentered" unicode="&#xb7;" horiz-adv-x="244" 
d="M81 350l46 18l46 -19l14 -50l-24 -42l-50 -14l-38 24l-17 46z" />
    <glyph glyph-name="cedilla" unicode="&#xb8;" horiz-adv-x="255" 
d="M192 -55l46 -48l-2 -57l-50 -62l-91 -12l-72 13l15 29l71 -13l56 23l7 48l-31 29l-59 9l-2 103l36 -5l7 -49z" />
    <glyph glyph-name="onesuperior" unicode="&#xb9;" horiz-adv-x="325" 
d="M205 452l5 -88l78 -20l-5 -35l-118 5l-116 -5l2 35l80 20l5 92v196l-86 -6l-5 29l130 45l30 -9v-259z" />
    <glyph glyph-name="ordmasculine" unicode="&#xba;" horiz-adv-x="413" 
d="M45 508v88l37 76l93 51h61l92 -48l42 -77v-87l-45 -90l-89 -46h-54l-98 52zM128 639l-19 -97l22 -81l58 -48h42l55 47l19 89l-22 90l-58 45h-39z" />
    <glyph glyph-name="guillemotright" unicode="&#xbb;" horiz-adv-x="574" 
d="M541 283l-135 -120l-90 -91l-43 26l106 112l71 87v4l-66 73l-125 115l41 28l92 -81l147 -113zM331 275l-123 -109l-102 -99l-43 25l110 119l60 79v4l-59 66l-135 128l41 29l114 -98l135 -104z" />
    <glyph glyph-name="onequarter" unicode="&#xbc;" horiz-adv-x="804" 
d="M201 452l5 -88l78 -20l-5 -35l-118 5l-116 -5l2 35l80 20l5 92v196l-86 -6l-5 29l130 45l30 -9v-259zM284 3l-67 -7l290 707l67 6zM759 36l-5 -35l-103 5l-111 -5l2 35l69 20v60l-149 -15l-23 38l186 282l38 9l33 -13l-10 -70v-192l67 5l-9 -49l-58 6v-61zM611 160l6 173
l-2 2l-40 -76l-31 -47l-43 -58z" />
    <glyph glyph-name="onehalf" unicode="&#xbd;" horiz-adv-x="890" 
d="M280 0l-67 -7l290 707l67 6zM198 452l5 -88l78 -20l-5 -35l-118 5l-116 -5l2 35l80 20l5 92v196l-86 -6l-5 29l130 45l30 -9v-259zM710 64l19 82l27 -10l5 -142l-272 7l-10 63l135 109l54 84l1 82l-62 38l-64 -13l-10 -87l-31 7l-9 103l106 26l89 -7l61 -54v-89l-83 -107
l-119 -99v-3z" />
    <glyph glyph-name="threequarters" unicode="&#xbe;" horiz-adv-x="839" 
d="M319 3l-67 -7l290 707l67 6zM254 462l-66 34l-41 5v41l35 7l56 33v74l-56 33l-72 -12l-10 -88l-34 8l-9 103l106 27l88 -9l64 -52v-67l-31 -43l-61 -26v-2l72 -23l41 -45v-80l-46 -48l-110 -28l-128 27l9 103l27 9l15 -87l100 -13l51 39v80zM794 36l-5 -35l-103 5
l-111 -5l2 35l69 20v60l-149 -15l-23 38l186 282l38 9l33 -13l-10 -70v-192l67 5l-9 -49l-58 6v-61zM646 160l6 173l-2 2l-40 -76l-31 -47l-43 -58z" />
    <glyph glyph-name="questiondown" unicode="&#xbf;" horiz-adv-x="432" 
d="M260.01 352.01l43.998 -110.993l-21.999 -75.9951l-128.992 -150.991l-20.999 -73.9951l14.999 -57.9961l43.998 -29.998l67.9951 -3l52.9971 20.998l21.999 116.993l33.998 1l12.999 -134.992l-80.9951 -32.9971l-88.9951 -9l-58.9961 5l-62.9961 24.998
l-45.9971 56.9971v73.9951l19.999 53.9971l139.991 141.991l30.998 46.9971l7.99902 51.9971l-14.999 74.9951zM274.009 424.006l-45.9971 -21.999l-47.9971 15.999l-21.998 53.9971l27.998 43.9971l46.9971 18.999l43.9971 -26.999l20.999 -44.9971z" />
    <glyph glyph-name="Agrave" unicode="&#xc0;" horiz-adv-x="684" 
d="M283 632l19 88l49 8l140 -370l129 -308l84 -20l-5 -40l-122 10l-152 -10l2 40l82 20l-70 190l-121 4l-115 -4l-65 -190l76 -20l-5 -40l-122 10l-92 -10l2 40l78 20l118 307zM312 597l-91 -302l97 -4l101 4l-64 160l-41 142h-2zM384 774l-30 -28l-111 72l-55 29l1 26
l62 39z" />
    <glyph glyph-name="Aacute" unicode="&#xc1;" horiz-adv-x="684" 
d="M283 632l19 88l49 8l140 -370l129 -308l84 -20l-5 -40l-122 10l-152 -10l2 40l82 20l-70 190l-121 4l-115 -4l-65 -190l76 -20l-5 -40l-122 10l-92 -10l2 40l78 20l118 307zM312 597l-91 -302l97 -4l101 4l-64 160l-41 142h-2zM420 912l62 -39l1 -26l-55 -29l-111 -72
l-30 28z" />
    <glyph glyph-name="Acircumflex" unicode="&#xc2;" horiz-adv-x="684" 
d="M283 632l19 88l49 8l140 -370l129 -308l84 -20l-5 -40l-122 10l-152 -10l2 40l82 20l-70 190l-121 4l-115 -4l-65 -190l76 -20l-5 -40l-122 10l-92 -10l2 40l78 20l118 307zM312 597l-91 -302l97 -4l101 4l-64 160l-41 142h-2zM477 768l-26 -10l-65 47l-55 53l-120 -100
l-29 8l-3 16l98 101l27 44h63l37 -54l85 -91z" />
    <glyph glyph-name="Atilde" unicode="&#xc3;" horiz-adv-x="684" 
d="M283 632l19 88l49 8l140 -370l129 -308l84 -20l-5 -40l-122 10l-152 -10l2 40l82 20l-70 190l-121 4l-115 -4l-65 -190l76 -20l-5 -40l-122 10l-92 -10l2 40l78 20l118 307zM312 597l-91 -302l97 -4l101 4l-64 160l-41 142h-2zM202 794l-25 23l63 74l60 2l82 -39h37
l29 28l29 -10l-21 -56l-46 -29l-48 1l-81 36l-39 -1z" />
    <glyph glyph-name="Adieresis" unicode="&#xc4;" horiz-adv-x="684" 
d="M283 632l19 88l49 8l140 -370l129 -308l84 -20l-5 -40l-122 10l-152 -10l2 40l82 20l-70 190l-121 4l-115 -4l-65 -190l76 -20l-5 -40l-122 10l-92 -10l2 40l78 20l118 307zM312 597l-91 -302l97 -4l101 4l-64 160l-41 142h-2zM184 879l44 21l47 -15l21 -52l-27 -42
l-45 -18l-43 26l-20 43zM374 879l45 21l46 -15l20 -52l-26 -42l-45 -18l-41 26l-17 43z" />
    <glyph glyph-name="Aring" unicode="&#xc5;" horiz-adv-x="684" 
d="M283 632l19 88l49 8l140 -370l129 -308l84 -20l-5 -40l-122 10l-152 -10l2 40l82 20l-70 190l-121 4l-115 -4l-65 -190l76 -20l-5 -40l-122 10l-92 -10l2 40l78 20l118 307zM312 597l-91 -302l97 -4l101 4l-64 160l-41 142h-2zM278 830l32 -15l37 12l14 30l-13 35l-31 12
l-37 -13l-14 -28zM246 936l74 22l73 -30l26 -85l-40 -60l-73 -27l-69 36l-30 73z" />
    <glyph glyph-name="AE" unicode="&#xc6;" horiz-adv-x="884" 
d="M514 330l8 -292l269 7l30 133l35 -9l4 -124l7 -55l-121 10h-274l-137 -10l2 35l80 25l6 194l-51 4l-144 -8l-85 -190l77 -20l-5 -35l-132 5l-92 -5l2 35l80 20l302 650h360l97 10l-9 -49l-2 -131l-36 -8l-26 133l-237 8l-8 -283l175 8l19 95l40 -13l-10 -114l10 -121
l-40 6l-19 99zM365 290l60 2l2 65l-7 201l3 92l-7 5l-168 -360z" />
    <glyph glyph-name="Ccedilla" unicode="&#xc7;" horiz-adv-x="646" 
d="M441 -44l46 -48l-2 -57l-50 -62l-91 -12l-72 13l15 29l71 -13l56 23l7 48l-31 29l-59 9l-7 65l-189 90l-71 129l-20 129v102l54 131l129 122l137 38h112l153 -39l-18 -51l-14 -121l-38 -3l-23 140l-74 19h-120l-150 -128l-33 -164l14 -152l58 -107l104 -82l163 14l93 56
l23 -33l-100 -68l-145 -17l3 -21z" />
    <glyph glyph-name="Egrave" unicode="&#xc8;" horiz-adv-x="625" 
d="M214 330l8 -292l289 7l30 133l35 -9l4 -124l7 -55l-121 10h-294l-137 -10l2 35l80 25l10 307l-10 293l-81 24l5 35l126 -9h288l97 10l-9 -49l-2 -131l-36 -8l-26 133l-257 8l-8 -281l195 6l19 95l40 -13l-10 -114l10 -121l-40 6l-19 99zM383 774l-30 -28l-111 72l-55 29
l1 26l62 39z" />
    <glyph glyph-name="Eacute" unicode="&#xc9;" horiz-adv-x="625" 
d="M214 330l8 -292l289 7l30 133l35 -9l4 -124l7 -55l-121 10h-294l-137 -10l2 35l80 25l10 307l-10 293l-81 24l5 35l126 -9h288l97 10l-9 -49l-2 -131l-36 -8l-26 133l-257 8l-8 -281l195 6l19 95l40 -13l-10 -114l10 -121l-40 6l-19 99zM399 912l62 -39l1 -26l-55 -29
l-111 -72l-30 28z" />
    <glyph glyph-name="Ecircumflex" unicode="&#xca;" horiz-adv-x="625" 
d="M214 330l8 -292l289 7l30 133l35 -9l4 -124l7 -55l-121 10h-294l-137 -10l2 35l80 25l10 307l-10 293l-81 24l5 35l126 -9h288l97 10l-9 -49l-2 -131l-36 -8l-26 133l-257 8l-8 -281l195 6l19 95l40 -13l-10 -114l10 -121l-40 6l-19 99zM476 768l-26 -10l-65 47l-55 53
l-120 -100l-29 8l-3 16l98 101l27 44h63l37 -54l85 -91z" />
    <glyph glyph-name="Edieresis" unicode="&#xcb;" horiz-adv-x="625" 
d="M214 330l8 -292l289 7l30 133l35 -9l4 -124l7 -55l-121 10h-294l-137 -10l2 35l80 25l10 307l-10 293l-81 24l5 35l126 -9h288l97 10l-9 -49l-2 -131l-36 -8l-26 133l-257 8l-8 -281l195 6l19 95l40 -13l-10 -114l10 -121l-40 6l-19 99zM193 879l44 21l47 -15l21 -52
l-27 -42l-45 -18l-43 26l-20 43zM383 879l45 21l46 -15l20 -52l-26 -42l-45 -18l-41 26l-17 43z" />
    <glyph glyph-name="Igrave" unicode="&#xcc;" horiz-adv-x="339" 
d="M220 141l6 -91l73 -20l-5 -40l-122 10l-137 -10l2 40l75 20l7 108l4 206l-3 197l-7 89l-73 20l5 40l122 -10l137 10l-2 -40l-76 -20l-7 -87l-4 -201zM211 775l-30 -28l-111 72l-55 29l1 26l62 39z" />
    <glyph glyph-name="Iacute" unicode="&#xcd;" horiz-adv-x="339" 
d="M220 141l6 -91l73 -20l-5 -40l-122 10l-137 -10l2 40l75 20l7 108l4 206l-3 197l-7 89l-73 20l5 40l122 -10l137 10l-2 -40l-76 -20l-7 -87l-4 -201zM256 913l62 -39l1 -26l-55 -29l-111 -72l-30 28z" />
    <glyph glyph-name="Icircumflex" unicode="&#xce;" horiz-adv-x="339" 
d="M220 141l6 -91l73 -20l-5 -40l-122 10l-137 -10l2 40l75 20l7 108l4 206l-3 197l-7 89l-73 20l5 40l122 -10l137 10l-2 -40l-76 -20l-7 -87l-4 -201zM314 769l-26 -10l-65 47l-55 53l-120 -100l-29 8l-3 16l98 101l27 44h63l37 -54l85 -91z" />
    <glyph glyph-name="Idieresis" unicode="&#xcf;" horiz-adv-x="339" 
d="M220 141l6 -91l73 -20l-5 -40l-122 10l-137 -10l2 40l75 20l7 108l4 206l-3 197l-7 89l-73 20l5 40l122 -10l137 10l-2 -40l-76 -20l-7 -87l-4 -201zM31 880l44 21l47 -15l21 -52l-27 -42l-45 -18l-43 26l-20 43zM221 880l45 21l46 -15l20 -52l-26 -42l-45 -18l-41 26
l-17 43z" />
    <glyph glyph-name="Eth" unicode="&#xd0;" horiz-adv-x="739" 
d="M172 0l-137 -5l2 35l80 20l10 282l-1 11l-94 -3l11 55l82 -2l-8 257l-77 20l5 35l122 -5l180 9l120 -27l155 -86l60 -123l11 -123l-53 -224l-168 -111l-125 -23zM348 45l119 34l81 78l31 193l-19 172l-95 101l-116 32h-127l-9 -124l2 -140l191 4l-11 -55l-161 7l-18 -1
l6 -301h126z" />
    <glyph glyph-name="Ntilde" unicode="&#xd1;" horiz-adv-x="757" 
d="M618 700l110 10l-2 -40l-77 -17l-5 -76l8 -597l-30 -10l-17 30l-241 307l-154 194l-40 76h-2l3 -85v-360l1 -85l76 -18l-5 -39l-105 10l-102 -10l2 40l68 16l8 86l7 518l-82 20l5 40l122 -10h50l28 -62l265 -353l84 -136h2l-1 96l-3 329l-5 79l-73 17l5 40zM272 794
l-25 23l63 74l60 2l82 -39h37l29 28l29 -10l-21 -56l-46 -29l-48 1l-81 36l-39 -1z" />
    <glyph glyph-name="Ograve" unicode="&#xd2;" 
d="M465 715l151 -84l73 -122l21 -165l-51 -208l-132 -126l-152 -34l-162 36l-124 128l-33 94l-12 184l43 131l72 101l148 65h158zM376 26l119 20l86 158l20 138l-15 132l-49 115l-106 81l-129 -9l-91 -80l-26 -61l-23 -86l4 -198l80 -152zM434 774l-30 -28l-111 72l-55 29
l1 26l62 39z" />
    <glyph glyph-name="Oacute" unicode="&#xd3;" 
d="M465 715l151 -84l73 -122l21 -165l-51 -208l-132 -126l-152 -34l-162 36l-124 128l-33 94l-12 184l43 131l72 101l148 65h158zM376 26l119 20l86 158l20 138l-15 132l-49 115l-106 81l-129 -9l-91 -80l-26 -61l-23 -86l4 -198l80 -152zM450 912l62 -39l1 -26l-55 -29
l-111 -72l-30 28z" />
    <glyph glyph-name="Ocircumflex" unicode="&#xd4;" 
d="M465 715l151 -84l73 -122l21 -165l-51 -208l-132 -126l-152 -34l-162 36l-124 128l-33 94l-12 184l43 131l72 101l148 65h158zM376 26l119 20l86 158l20 138l-15 132l-49 115l-106 81l-129 -9l-91 -80l-26 -61l-23 -86l4 -198l80 -152zM527 768l-26 -10l-65 47l-55 53
l-120 -100l-29 8l-3 16l98 101l27 44h63l37 -54l85 -91z" />
    <glyph glyph-name="Otilde" unicode="&#xd5;" 
d="M465 715l151 -84l73 -122l21 -165l-51 -208l-132 -126l-152 -34l-162 36l-124 128l-33 94l-12 184l43 131l72 101l148 65h158zM376 26l119 20l86 158l20 138l-15 132l-49 115l-106 81l-129 -9l-91 -80l-26 -61l-23 -86l4 -198l80 -152zM262 794l-25 23l63 74l60 2l82 -39
h37l29 28l29 -10l-21 -56l-46 -29l-48 1l-81 36l-39 -1z" />
    <glyph glyph-name="Odieresis" unicode="&#xd6;" 
d="M465 715l151 -84l73 -122l21 -165l-51 -208l-132 -126l-152 -34l-162 36l-124 128l-33 94l-12 184l43 131l72 101l148 65h158zM376 26l119 20l86 158l20 138l-15 132l-49 115l-106 81l-129 -9l-91 -80l-26 -61l-23 -86l4 -198l80 -152zM234 879l44 21l47 -15l21 -52
l-27 -42l-45 -18l-43 26l-20 43zM424 879l45 21l46 -15l20 -52l-26 -42l-45 -18l-41 26l-17 43z" />
    <glyph glyph-name="multiply" unicode="&#xd7;" horiz-adv-x="445" 
d="M232 353l103 133l39 -52l-108 -126l128 -104l-54 -40l-125 115l-107 -130l-39 52l113 126l-131 107l53 41z" />
    <glyph glyph-name="Oslash" unicode="&#xd8;" 
d="M465 715l65 -36l49 86l59 -10l-59 -104l37 -20l73 -122l21 -165l-51 -208l-132 -126l-152 -34l-159 35l-35 -61l-61 10l53 93l-84 87l-33 94l-12 184l43 131l72 101l148 65h158zM540 582l-285 -502l121 -54l119 20l86 158l20 138l-15 132zM166 236l53 -102l277 486
l-65 50l-129 -9l-91 -80l-26 -61l-23 -86z" />
    <glyph glyph-name="Ugrave" unicode="&#xd9;" horiz-adv-x="745" 
d="M645 588l-4 -313l-21 -170l-96 -104l-77 -18h-116l-137 29l-74 105l-19 148l8 294l-5 91l-80 20l5 40l122 -10l137 10l-2 -40l-67 -20l-11 -95l-8 -229l7 -159l45 -90l125 -47l114 18l73 100l22 157l-6 275l-7 74l-64 16l5 40l102 -10l107 10l-2 -40l-69 -16zM428 773
l-30 -28l-111 72l-55 29l1 26l62 39z" />
    <glyph glyph-name="Uacute" unicode="&#xda;" horiz-adv-x="745" 
d="M645 588l-4 -313l-21 -170l-96 -104l-77 -18h-116l-137 29l-74 105l-19 148l8 294l-5 91l-80 20l5 40l122 -10l137 10l-2 -40l-67 -20l-11 -95l-8 -229l7 -159l45 -90l125 -47l114 18l73 100l22 157l-6 275l-7 74l-64 16l5 40l102 -10l107 10l-2 -40l-69 -16zM485 911
l62 -39l1 -26l-55 -29l-111 -72l-30 28z" />
    <glyph glyph-name="Ucircumflex" unicode="&#xdb;" horiz-adv-x="745" 
d="M645 588l-4 -313l-21 -170l-96 -104l-77 -18h-116l-137 29l-74 105l-19 148l8 294l-5 91l-80 20l5 40l122 -10l137 10l-2 -40l-67 -20l-11 -95l-8 -229l7 -159l45 -90l125 -47l114 18l73 100l22 157l-6 275l-7 74l-64 16l5 40l102 -10l107 10l-2 -40l-69 -16zM551 767
l-26 -10l-65 47l-55 53l-120 -100l-29 8l-3 16l98 101l27 44h63l37 -54l85 -91z" />
    <glyph glyph-name="Udieresis" unicode="&#xdc;" horiz-adv-x="745" 
d="M645 588l-4 -313l-21 -170l-96 -104l-77 -18h-116l-137 29l-74 105l-19 148l8 294l-5 91l-80 20l5 40l122 -10l137 10l-2 -40l-67 -20l-11 -95l-8 -229l7 -159l45 -90l125 -47l114 18l73 100l22 157l-6 275l-7 74l-64 16l5 40l102 -10l107 10l-2 -40l-69 -16zM258 878
l44 21l47 -15l21 -52l-27 -42l-45 -18l-43 26l-20 43zM448 878l45 21l46 -15l20 -52l-26 -42l-45 -18l-41 26l-17 43z" />
    <glyph glyph-name="Yacute" unicode="&#xdd;" horiz-adv-x="655" 
d="M382 130l8 -80l81 -20l-5 -40l-132 10l-134 -10l2 40l79 18l5 81l3 162l-172 291l-60 70l-70 18l5 40l131 -10l140 10l-2 -40l-72 -16l29 -71l76 -129l51 -96h4l49 87l86 140l26 73l-72 12l5 40l113 -10l107 10l-2 -40l-73 -16l-51 -71l-162 -267zM441 912l62 -39l1 -26
l-55 -29l-111 -72l-30 28z" />
    <glyph glyph-name="Thorn" unicode="&#xde;" horiz-adv-x="574" 
d="M219 153l1 -12l6 -91l73 -20l-5 -40l-122 10l-137 -10l2 40l75 20l7 108l4 206l-3 197l-7 89l-73 20l5 40l122 -10l137 10l-2 -40l-76 -20l-7 -82l59 8l82 -6l81 -26l79 -60l25 -103l-18 -111l-61 -70l-176 -55zM218 197l60 -7l135 57l29 113l-21 92l-79 77l-124 -8
l-3 -159z" />
    <glyph glyph-name="germandbls" unicode="&#xdf;" horiz-adv-x="630" 
d="M316 727l-110 -54l-12 -93l1 -412l9 -168h-57l-122 -5l2 35l67 20l10 102v173l-4 105l-65 -5l10 50h59l-4 85l22 107l82 77l125 25l127 -39l67 -69l19 -75l-13 -65l-55 -35l-76 -26l-26 -50l9 -53l182 -116l46 -52v-85l-19 -59l-49 -46l-109 -19l-76 6l-70 23l10 153
l38 -5l23 -114l68 -17l82 19l15 66l-29 59l-170 100l-36 66v90l50 58l132 59l-2 70l-38 73z" />
    <glyph glyph-name="agrave" unicode="&#xe0;" horiz-adv-x="496" 
d="M151 56l75 -19l101 58l-4 135h-87l-77 -31l-35 -62zM409 182l7 -141l69 -10l-7 -33l-139 -12l-13 59h-5l-99 -59h-104l-70 51l-21 98l44 78l120 52l132 5l-4 125l-19 62l-81 23l-97 -23l-3 -106l-39 -8l-26 137l115 34l129 6l78 -38l32 -86zM264 583l-36 -17l-82 105
l-42 46l10 23l70 17z" />
    <glyph glyph-name="aacute" unicode="&#xe1;" horiz-adv-x="496" 
d="M151 56l75 -19l101 58l-4 135h-87l-77 -31l-35 -62zM409 182l7 -141l69 -10l-7 -33l-139 -12l-13 59h-5l-99 -59h-104l-70 51l-21 98l44 78l120 52l132 5l-4 125l-19 62l-81 23l-97 -23l-3 -106l-39 -8l-26 137l115 34l129 6l78 -38l32 -86zM295 757l70 -17l10 -23
l-42 -46l-82 -105l-36 17z" />
    <glyph glyph-name="acircumflex" unicode="&#xe2;" horiz-adv-x="496" 
d="M151 56l75 -19l101 58l-4 135h-87l-77 -31l-35 -62zM409 182l7 -141l69 -10l-7 -33l-139 -12l-13 59h-5l-99 -59h-104l-70 51l-21 98l44 78l120 52l132 5l-4 125l-19 62l-81 23l-97 -23l-3 -106l-39 -8l-26 137l115 34l129 6l78 -38l32 -86zM354 571l-42 -12l-38 60
l-28 65l-41 -65l-45 -63l-39 8l-10 15l58 88l45 86h61l39 -80l54 -85z" />
    <glyph glyph-name="atilde" unicode="&#xe3;" horiz-adv-x="496" 
d="M151 56l75 -19l101 58l-4 135h-87l-77 -31l-35 -62zM409 182l7 -141l69 -10l-7 -33l-139 -12l-13 59h-5l-99 -59h-104l-70 51l-21 98l44 78l120 52l132 5l-4 125l-19 62l-81 23l-97 -23l-3 -106l-39 -8l-26 137l115 34l129 6l78 -38l32 -86zM107 597l-25 23l63 74l60 2
l82 -39h37l29 28l29 -10l-21 -56l-46 -29l-48 1l-81 36l-39 -1z" />
    <glyph glyph-name="adieresis" unicode="&#xe4;" horiz-adv-x="496" 
d="M151 56l75 -19l101 58l-4 135h-87l-77 -31l-35 -62zM409 182l7 -141l69 -10l-7 -33l-139 -12l-13 59h-5l-99 -59h-104l-70 51l-21 98l44 78l120 52l132 5l-4 125l-19 62l-81 23l-97 -23l-3 -106l-39 -8l-26 137l115 34l129 6l78 -38l32 -86zM116 691l44 21l47 -15l21 -52
l-27 -42l-45 -18l-43 26l-20 43zM281 691l45 21l46 -15l21 -52l-27 -42l-45 -18l-42 26l-21 43z" />
    <glyph glyph-name="aring" unicode="&#xe5;" horiz-adv-x="496" 
d="M151 56l75 -19l101 58l-4 135h-87l-77 -31l-35 -62zM409 182l7 -141l69 -10l-7 -33l-139 -12l-13 59h-5l-99 -59h-104l-70 51l-21 98l44 78l120 52l132 5l-4 125l-19 62l-81 23l-97 -23l-3 -106l-39 -8l-26 137l115 34l129 6l78 -38l32 -86zM206 630l32 -15l37 12l14 30
l-13 35l-31 12l-37 -13l-14 -28zM174 736l74 22l73 -30l26 -85l-40 -60l-73 -27l-69 36l-30 73z" />
    <glyph glyph-name="ae" unicode="&#xe6;" horiz-adv-x="786" 
d="M375 482l16 -45l9 15l105 58l88 11l70 -22l54 -49l31 -89l1 -83l-14 -11l-133 -9l-173 11l-1 -9l27 -141l79 -78l92 -10l94 50l18 -26l-79 -63l-94 -12l-98 23l-85 71l-10 19l-57 -74l-94 -33h-104l-70 51l-21 98l44 78l120 52l132 5l-4 125l-19 62l-81 23l-97 -23
l-3 -106l-39 -8l-26 137l115 34l129 6zM150 56l75 -19l80 45l17 63v85h-87l-77 -31l-35 -62zM479 431l-39 -76l-6 -45l152 -2l69 15l-6 93l-30 51l-64 9z" />
    <glyph glyph-name="ccedilla" unicode="&#xe7;" horiz-adv-x="484" 
d="M342 -64l46 -48l-2 -57l-50 -62l-91 -12l-72 13l15 29l71 -13l56 23l7 48l-31 29l-59 9l-2 98l-98 28l-89 145l-1 167l68 119l105 55l91 13l153 -20l-30 -157l-33 -5l-18 125l-126 10l-90 -96l-26 -104l13 -106l64 -116l123 -20l94 50l18 -26l-79 -63l-94 -12l-8 2l6 -38
z" />
    <glyph glyph-name="egrave" unicode="&#xe8;" horiz-adv-x="495" 
d="M139 269l-1 -9l27 -141l79 -78l92 -10l94 50l18 -26l-79 -63l-94 -12l-98 23l-85 71l-51 150l17 134l52 94l105 58l88 11l70 -22l54 -49l31 -89l1 -83l-14 -11l-133 -9zM189 431l-39 -76l-6 -45l152 -2l69 15l-6 93l-30 51l-64 9zM308 582l-36 -17l-82 105l-42 46l10 23
l70 17z" />
    <glyph glyph-name="eacute" unicode="&#xe9;" horiz-adv-x="495" 
d="M139 269l-1 -9l27 -141l79 -78l92 -10l94 50l18 -26l-79 -63l-94 -12l-98 23l-85 71l-51 150l17 134l52 94l105 58l88 11l70 -22l54 -49l31 -89l1 -83l-14 -11l-133 -9zM189 431l-39 -76l-6 -45l152 -2l69 15l-6 93l-30 51l-64 9zM339 756l70 -17l10 -23l-42 -46
l-82 -105l-36 17z" />
    <glyph glyph-name="ecircumflex" unicode="&#xea;" horiz-adv-x="495" 
d="M139 269l-1 -9l27 -141l79 -78l92 -10l94 50l18 -26l-79 -63l-94 -12l-98 23l-85 71l-51 150l17 134l52 94l105 58l88 11l70 -22l54 -49l31 -89l1 -83l-14 -11l-133 -9zM189 431l-39 -76l-6 -45l152 -2l69 15l-6 93l-30 51l-64 9zM388 570l-42 -12l-38 60l-28 65l-41 -65
l-45 -63l-39 8l-10 15l58 88l45 86h61l39 -80l54 -85z" />
    <glyph glyph-name="edieresis" unicode="&#xeb;" horiz-adv-x="495" 
d="M139 269l-1 -9l27 -141l79 -78l92 -10l94 50l18 -26l-79 -63l-94 -12l-98 23l-85 71l-51 150l17 134l52 94l105 58l88 11l70 -22l54 -49l31 -89l1 -83l-14 -11l-133 -9zM189 431l-39 -76l-6 -45l152 -2l69 15l-6 93l-30 51l-64 9zM148 690l44 21l47 -15l21 -52l-27 -42
l-45 -18l-43 26l-20 43zM313 690l45 21l46 -15l21 -52l-27 -42l-45 -18l-42 26l-21 43z" />
    <glyph glyph-name="igrave" unicode="&#xec;" horiz-adv-x="290" 
d="M199 363l-6 -100l3 -97l4 -116l73 -20l-5 -35l-118 5l-122 -5l2 35l66 20l5 105l-2 192l-5 104l-71 -3l-5 35l138 27l50 -11zM175 583l-36 -17l-82 105l-42 46l10 23l70 17z" />
    <glyph glyph-name="iacute" unicode="&#xed;" horiz-adv-x="290" 
d="M199 363l-6 -100l3 -97l4 -116l73 -20l-5 -35l-118 5l-122 -5l2 35l66 20l5 105l-2 192l-5 104l-71 -3l-5 35l138 27l50 -11zM166 757l70 -17l10 -23l-42 -46l-82 -105l-36 17z" />
    <glyph glyph-name="icircumflex" unicode="&#xee;" horiz-adv-x="290" 
d="M199 363l-6 -100l3 -97l4 -116l73 -20l-5 -35l-118 5l-122 -5l2 35l66 20l5 105l-2 192l-5 104l-71 -3l-5 35l138 27l50 -11zM255 571l-42 -12l-38 60l-28 65l-41 -65l-45 -63l-39 8l-10 15l58 88l45 86h61l39 -80l54 -85z" />
    <glyph glyph-name="idieresis" unicode="&#xef;" horiz-adv-x="290" 
d="M199 363l-6 -100l3 -97l4 -116l73 -20l-5 -35l-118 5l-122 -5l2 35l66 20l5 105l-2 192l-5 104l-71 -3l-5 35l138 27l50 -11zM16 691l44 21l47 -15l21 -52l-27 -42l-45 -18l-43 26l-20 43zM181 691l45 21l46 -15l21 -52l-27 -42l-45 -18l-42 26l-21 43z" />
    <glyph glyph-name="eth" unicode="&#xf0;" horiz-adv-x="579" 
d="M39 190v110l59 119l125 80h105l89 -35l1 -1l-26 78l-68 79l-96 -62l-28 47l89 44l-68 30l-48 15l2 46l64 -16l99 -48l103 63l21 -49l-85 -43l66 -64l67 -151l14 -84l4 -44v-109l-30 -110l-82 -79l-128 -26l-121 25l-95 86zM162 377l-18 -134l12 -116l42 -78l94 -30
l103 50l33 166l-10 99l-43 83l-63 37h-81z" />
    <glyph glyph-name="ntilde" unicode="&#xf1;" horiz-adv-x="603" 
d="M525 49l71 -19l-5 -35l-118 5l-122 -5l2 35l66 20l7 105l-4 218l-27 66l-85 15l-109 -56l-2 -35l-6 -100l2 -97l5 -116l73 -20l-5 -35l-118 5l-122 -5l2 35l66 20l7 105l-9 296l-71 -3l-5 35l138 27l50 -11l-3 -51l107 65l102 7l92 -63l15 -80l-2 -211zM196 597l-25 23
l63 74l60 2l82 -39h37l29 28l29 -10l-21 -56l-46 -29l-48 1l-81 36l-39 -1z" />
    <glyph glyph-name="ograve" unicode="&#xf2;" horiz-adv-x="576" 
d="M39 190v131l59 119l113 75l137 5l125 -75l65 -120l-12 -183l-74 -118l-155 -44l-130 25l-95 86zM149 355l-5 -112l12 -116l43 -75l106 -26l98 43l29 156l-10 130l-37 83l-73 37l-100 -11zM312 584l-36 -17l-82 105l-42 46l10 23l70 17z" />
    <glyph glyph-name="oacute" unicode="&#xf3;" horiz-adv-x="576" 
d="M39 190v131l59 119l113 75l137 5l125 -75l65 -120l-12 -183l-74 -118l-155 -44l-130 25l-95 86zM149 355l-5 -112l12 -116l43 -75l106 -26l98 43l29 156l-10 130l-37 83l-73 37l-100 -11zM353 758l70 -17l10 -23l-42 -46l-82 -105l-36 17z" />
    <glyph glyph-name="ocircumflex" unicode="&#xf4;" horiz-adv-x="576" 
d="M39 190v131l59 119l113 75l137 5l125 -75l65 -120l-12 -183l-74 -118l-155 -44l-130 25l-95 86zM149 355l-5 -112l12 -116l43 -75l106 -26l98 43l29 156l-10 130l-37 83l-73 37l-100 -11zM402 572l-42 -12l-38 60l-28 65l-41 -65l-45 -63l-39 8l-10 15l58 88l45 86h61
l39 -80l54 -85z" />
    <glyph glyph-name="otilde" unicode="&#xf5;" horiz-adv-x="576" 
d="M39 190v131l59 119l113 75l137 5l125 -75l65 -120l-12 -183l-74 -118l-155 -44l-130 25l-95 86zM149 355l-5 -112l12 -116l43 -75l106 -26l98 43l29 156l-10 130l-37 83l-73 37l-100 -11zM155 598l-25 23l63 74l60 2l82 -39h37l29 28l29 -10l-21 -56l-46 -29l-48 1
l-81 36l-39 -1z" />
    <glyph glyph-name="odieresis" unicode="&#xf6;" horiz-adv-x="576" 
d="M39 190v131l59 119l113 75l137 5l125 -75l65 -120l-12 -183l-74 -118l-155 -44l-130 25l-95 86zM149 355l-5 -112l12 -116l43 -75l106 -26l98 43l29 156l-10 130l-37 83l-73 37l-100 -11zM162 692l44 21l47 -15l21 -52l-27 -42l-45 -18l-43 26l-20 43zM327 692l45 21
l46 -15l21 -52l-27 -42l-45 -18l-42 26l-21 43z" />
    <glyph glyph-name="divide" unicode="&#xf7;" horiz-adv-x="504" 
d="M185 288l-136 -16l7 63l251 13l138 15l-7 -63zM196 513l44 21l48 -15l17 -50l-21 -44l-48 -16l-40 20l-21 46zM218 192l44 20l48 -15l18 -49l-22 -43l-48 -18l-40 22l-21 44z" />
    <glyph glyph-name="oslash" unicode="&#xf8;" horiz-adv-x="582" 
d="M39 190v131l59 119l113 75l137 5l61 -37l53 89l56 -11l-63 -106l18 -10l65 -120l-12 -183l-74 -118l-155 -44l-130 25l-34 -56l-57 11l50 82l-54 49zM149 355l-5 -112l12 -116l13 -24l2 2l67 96l137 236l3 4l-66 34l-100 -11zM200 51l105 -25l98 43l29 156l-10 130
l-15 32v-1l-55 -78l-147 -250z" />
    <glyph glyph-name="ugrave" unicode="&#xf9;" horiz-adv-x="590" 
d="M183 345v-218l27 -66l84 -11l109 65v106l-1 125l-5 104l-71 -3l-5 35l138 27l50 -11l-7 -136l-1 -80l2 -61v-180l70 -20l-5 -35h-137l-23 84l-113 -83l-102 -7l-92 63l-15 80l1 214l-10 114l-71 -3l-5 35l138 27l50 -11zM293 583l-36 -17l-82 105l-42 46l10 23l70 17z
" />
    <glyph glyph-name="uacute" unicode="&#xfa;" horiz-adv-x="590" 
d="M183 345v-218l27 -66l84 -11l109 65v106l-1 125l-5 104l-71 -3l-5 35l138 27l50 -11l-7 -136l-1 -80l2 -61v-180l70 -20l-5 -35h-137l-23 84l-113 -83l-102 -7l-92 63l-15 80l1 214l-10 114l-71 -3l-5 35l138 27l50 -11zM324 757l70 -17l10 -23l-42 -46l-82 -105l-36 17z
" />
    <glyph glyph-name="ucircumflex" unicode="&#xfb;" horiz-adv-x="590" 
d="M183 345v-218l27 -66l84 -11l109 65v106l-1 125l-5 104l-71 -3l-5 35l138 27l50 -11l-7 -136l-1 -80l2 -61v-180l70 -20l-5 -35h-137l-23 84l-113 -83l-102 -7l-92 63l-15 80l1 214l-10 114l-71 -3l-5 35l138 27l50 -11zM384 571l-42 -12l-38 60l-28 65l-41 -65l-45 -63
l-39 8l-10 15l58 88l45 86h61l39 -80l54 -85z" />
    <glyph glyph-name="udieresis" unicode="&#xfc;" horiz-adv-x="590" 
d="M183 345v-218l27 -66l84 -11l109 65v106l-1 125l-5 104l-71 -3l-5 35l138 27l50 -11l-7 -136l-1 -80l2 -61v-180l70 -20l-5 -35h-137l-23 84l-113 -83l-102 -7l-92 63l-15 80l1 214l-10 114l-71 -3l-5 35l138 27l50 -11zM153 691l44 21l47 -15l21 -52l-27 -42l-45 -18
l-43 26l-20 43zM318 691l45 21l46 -15l21 -52l-27 -42l-45 -18l-42 26l-21 43z" />
    <glyph glyph-name="yacute" unicode="&#xfd;" horiz-adv-x="573" 
d="M114 -270l-31 45l-30 82l38 14l56 -83l51 49l70 160l-155 397l-35 61l-71 15l5 35l122 -5l119 5l-2 -35l-58 -17l15 -62l54 -138l55 -161h3l50 157l51 143l10 64l-56 14l5 35l107 -5l85 5l-2 -35l-61 -18l-35 -75l-149 -398l-86 -165l-75 -74zM379 757l70 -17l10 -23
l-42 -46l-82 -105l-36 17z" />
    <glyph glyph-name="thorn" unicode="&#xfe;" horiz-adv-x="568" 
d="M169 602l-2 -147h9l107 66l111 -13l73 -52l58 -119l1 -170l-38 -79l-115 -93l-111 -15l-99 26l3 -90l8 -116l83 -20l-5 -35l-132 5l-122 -5l2 35l66 20l5 105l4 219l-6 462l-5 107l-71 -3l-5 35l138 27l38 -11zM167 412l-4 -351l113 -36l63 18l77 82l14 115l-30 168
l-94 53z" />
    <glyph glyph-name="ydieresis" unicode="&#xff;" horiz-adv-x="573" 
d="M114 -270l-31 45l-30 82l38 14l56 -83l51 49l70 160l-155 397l-35 61l-71 15l5 35l122 -5l119 5l-2 -35l-58 -17l15 -62l54 -138l55 -161h3l50 157l51 143l10 64l-56 14l5 35l107 -5l85 5l-2 -35l-61 -18l-35 -75l-149 -398l-86 -165l-75 -74zM188 691l44 21l47 -15
l21 -52l-27 -42l-45 -18l-43 26l-20 43zM353 691l45 21l46 -15l21 -52l-27 -42l-45 -18l-42 26l-21 43z" />
    <glyph glyph-name="dotlessi" unicode="&#x131;" horiz-adv-x="290" 
d="M199 363l-6 -100l3 -97l4 -116l73 -20l-5 -35l-118 5l-122 -5l2 35l66 20l5 105l-2 192l-5 104l-71 -3l-5 35l138 27l50 -11z" />
    <glyph glyph-name="OE" unicode="&#x152;" horiz-adv-x="1082" 
d="M465 715l118 -78l-4 67l52 -4h292l97 10l-9 -49l-2 -131l-36 -8l-26 133l-261 8l-8 -284l199 9l19 95l40 -13l-10 -114l10 -121l-40 6l-19 99l-199 -10l8 -292l293 7l30 133l35 -9l4 -124l7 -55l-121 10h-298l-57 -3l5 83l-57 -70l-152 -34l-162 36l-124 128l-33 94
l-12 184l43 131l72 101l148 65h158zM376 26l119 20l86 158l20 138l-15 122l-49 125l-107 77l-124 -1l-95 -84l-26 -61l-23 -86l4 -198l80 -152z" />
    <glyph glyph-name="oe" unicode="&#x153;" horiz-adv-x="884" 
d="M39 190v131l59 119l113 75l137 5l125 -75l11 -21l16 28l105 58l88 11l70 -22l54 -49l31 -89l1 -83l-14 -11l-133 -9l-173 11l-1 -9l27 -141l79 -78l92 -10l94 50l18 -26l-79 -63l-94 -12l-98 23l-84 70l-31 -49l-155 -44l-130 25l-95 86zM149 355l-5 -112l12 -116l43 -75
l106 -26l98 43l29 163l-10 123l-37 83l-73 37l-100 -11zM579 431l-39 -76l-6 -45l152 -2l69 15l-6 93l-30 51l-64 9z" />
    <glyph glyph-name="circumflex" unicode="&#x2c6;" horiz-adv-x="282" 
d="M241 571l-42 -12l-38 60l-28 65l-41 -65l-45 -63l-39 8l-10 15l58 88l45 86h61l39 -80l54 -85z" />
    <glyph glyph-name="caron" unicode="&#x2c7;" horiz-adv-x="235" 
d="M14 748l47 12l38 -70l32 -72l35 72l36 64l39 -8l10 -15l-49 -89l-45 -81l-61 -5l-39 80l-57 95z" />
    <glyph glyph-name="ring" unicode="&#x2da;" horiz-adv-x="255" 
d="M95 630l32 -15l37 12l14 30l-13 35l-31 12l-37 -13l-14 -28zM63 736l74 22l73 -30l26 -85l-40 -60l-73 -27l-69 36l-30 73z" />
    <glyph glyph-name="tilde" unicode="&#x2dc;" horiz-adv-x="344" 
d="M48 597l-25 23l63 74l60 2l82 -39h37l29 28l29 -10l-21 -56l-46 -29l-48 1l-81 36l-39 -1z" />
    <glyph glyph-name="endash" unicode="&#x2013;" horiz-adv-x="548" 
d="M197 291l-135 -15l6 63l280 14l139 14l-7 -63z" />
    <glyph glyph-name="emdash" unicode="&#x2014;" horiz-adv-x="898" 
d="M198 288l-135 -11l8 63l551 4l209 10l-9 -63z" />
    <glyph glyph-name="quoteleft" unicode="&#x2018;" horiz-adv-x="215" 
d="M106 475l-61 28l-16 49l11 76l48 75l105 55v-42l-80 -39l-19 -73h26l40 -27l16 -48l-23 -35z" />
    <glyph glyph-name="quoteright" unicode="&#x2019;" horiz-adv-x="205" 
d="M116 758l61 -28l16 -49l-11 -76l-48 -75l-105 -55v42l80 39l19 73h-26l-40 27l-16 48l23 35z" />
    <glyph glyph-name="quotesinglbase" unicode="&#x201a;" horiz-adv-x="239" 
d="M116 129l61 -28l16 -49l-11 -76l-48 -75l-105 -55v42l80 39l19 73h-26l-40 27l-16 48l23 35z" />
    <glyph glyph-name="quotedblleft" unicode="&#x201c;" horiz-adv-x="400" 
d="M356 515l-46 -18l-46 19l-23 31l-9 59l24 97l63 67l26 -28l-49 -58l-2 -64h45l31 -26l9 -42zM176 515l-46 -18l-46 19l-23 31l-9 59l24 97l63 67l26 -28l-49 -58l-2 -64h45l31 -26l9 -42z" />
    <glyph glyph-name="quotedblright" unicode="&#x201d;" horiz-adv-x="390" 
d="M68 740l46 18l46 -19l23 -31l9 -59l-24 -97l-63 -67l-26 28l49 58l2 64h-45l-31 26l-9 42zM248 740l46 18l46 -19l23 -31l9 -59l-24 -97l-63 -67l-26 28l49 58l2 64h-45l-31 26l-9 42z" />
    <glyph glyph-name="quotedblbase" unicode="&#x201e;" horiz-adv-x="410" 
d="M68 90l46 18l46 -19l23 -31l9 -59l-24 -97l-63 -67l-26 28l49 58l2 64h-45l-31 26l-9 42zM248 90l46 18l46 -19l23 -31l9 -59l-24 -97l-63 -67l-26 28l49 58l2 64h-45l-31 26l-9 42z" />
    <glyph glyph-name="bullet" unicode="&#x2022;" horiz-adv-x="404" 
d="M111 471l101 39l101 -41l31 -110l-53 -93l-110 -31l-84 53l-37 101z" />
    <glyph glyph-name="guilsinglleft" unicode="&#x2039;" horiz-adv-x="364" 
d="M35 306l135 120l90 91l43 -26l-106 -112l-71 -87v-4l66 -73l125 -115l-41 -28l-92 81l-147 113z" />
    <glyph glyph-name="guilsinglright" unicode="&#x203a;" horiz-adv-x="364" 
d="M317 283l-135 -120l-90 -91l-43 26l106 112l71 87v4l-66 73l-125 115l41 28l92 -81l147 -113z" />
    <glyph glyph-name="fraction" unicode="&#x2044;" horiz-adv-x="334" 
d="M55 0l-67 -7l290 707l67 6z" />
    <glyph glyph-name="foursuperior" unicode="&#x2074;" horiz-adv-x="389" 
d="M339 344l-5 -35l-103 5l-111 -5l2 35l69 20v60l-149 -15l-23 38l186 282l38 9l33 -13l-10 -70v-192l67 5l-9 -49l-58 6v-61zM191 468l6 173l-2 2l-40 -76l-31 -47l-43 -58z" />
    <glyph glyph-name="Euro" unicode="&#x20ac;" horiz-adv-x="744" 
d="M694 70l-100 -68l-190 -22l-189 90l-71 129l-9 59l-78 -2l10 50l60 -2l-3 24v50l-67 -2l10 50l57 -2v6l54 131l129 122l137 38h102l153 -39l-18 -51l-54 -121l-38 -3l17 140l-74 19h-110l-150 -128l-24 -117h26l168 5l-10 -50l-192 3l-1 -5l6 -73h29l128 5l-10 -50
l-143 3l4 -37l58 -107l104 -82l163 14l93 56z" />
    <glyph glyph-name="minus" unicode="&#x2212;" horiz-adv-x="541" 
d="M207 290l-136 -11l9 63l251 4l139 10l-9 -63z" />
    <glyph glyph-name="noBreak" horiz-adv-x="260" 
 />
    <glyph glyph-name="caron.case" horiz-adv-x="340" 
d="M321 951l-85 -91l-37 -54h-63l-27 44l-98 101l3 16l29 8l124 -105l61 58l55 47l26 -10z" />
    <glyph glyph-name="tilde.case" horiz-adv-x="331" 
d="M48 844l-25 23l63 74l60 2l82 -39h37l29 28l29 -10l-21 -56l-46 -29l-48 1l-81 36l-39 -1z" />
    <glyph glyph-name="dieresis.case" horiz-adv-x="364" 
d="M40 929l44 21l47 -15l21 -52l-27 -42l-45 -18l-43 26l-20 43zM230 929l45 21l46 -15l20 -52l-26 -42l-45 -18l-41 26l-17 43z" />
    <glyph glyph-name="circumflex.case" horiz-adv-x="332" 
d="M316 818l-26 -10l-65 47l-55 53l-120 -100l-29 8l-3 16l98 101l27 44h63l37 -54l85 -91z" />
    <glyph glyph-name="acute.case" horiz-adv-x="250" 
d="M161 962l62 -39l1 -26l-55 -29l-111 -72l-30 28z" />
    <glyph glyph-name="foundryicon" horiz-adv-x="1056" 
d="M1007 251h-16q1 -2 1 -5q0 -14 -11 -24.5t-34 -10.5q-9 0 -12 1v-15h18q39 0 39 -36q0 -8 -2 -13.5t-4 -9.5h-27v29h-46q-5 4 -7.5 10t-2.5 12q0 18 14 30q-14 8 -14 28q0 16 11.5 26.5t31.5 10.5q18 0 31 -10q8 10 19 10q4 0 6 -0.5t5 -1.5v-31zM245 175
q-6 -22 -17.5 -29.5t-25.5 -7.5q-19 0 -26 7v26h17q16 0 21 11h-14l-24 69h-10v31h38l14 -49l5 -24l11 42h-9v31h43v-31zM158 187q-18 -8 -41 -8q-31 0 -48.5 17.5t-17.5 48.5q0 32 17 51.5t51 19.5q9 0 19 -2t20 -5v-40h-31v15q-3 1 -9 1q-14 0 -21.5 -10t-7.5 -26
q0 -37 37 -37h32v-25zM748 179q-49 0 -49 52q0 25 13.5 39t36.5 14t36.5 -13.5t13.5 -38.5t-13.5 -39t-37.5 -14zM484 277q9 3 17.5 5t18.5 2q46 0 46 -38v-34h11v-27q-8 -5 -20 -5q-16 0 -22 7q-9 -8 -25 -8q-14 0 -24 8t-10 23q0 14 9 22t30 8h16v1q0 4 -4.5 7t-17.5 3
h-25v26zM461 212v-26q-8 -4 -18 -5.5t-19 -1.5q-26 0 -39.5 13.5t-13.5 37.5t12 39t37 15q20 0 32 -12t12 -30q0 -4 -0.5 -8.5t-1.5 -9.5h-55q4 -12 25 -12h29zM811 251v31h34l10 -16q2 5 4.5 7.5l5.5 5.5q7 5 15 5q6 0 12 -2v-31h-34v-39h17v-30h-62v30h9v39h-11zM282 251
v31h34l10 -16q2 5 4.5 7.5l5.5 5.5q7 5 15 5q6 0 12 -2v-31h-34v-39h17v-30h-62v30h10v39h-12zM589 285h-12v31h47v-104h14v-28q-9 -4 -22 -4q-27 0 -27 28v77zM651 199q0 8 5 14t15 6q11 0 16.5 -6t5.5 -14t-5.5 -13.5t-16.5 -5.5q-10 0 -15 5.5t-5 13.5zM749 206
q14 0 14 26q0 24 -14 24t-14 -24q0 -26 14 -26zM936 247q0 -15 12 -15q10 0 10 15t-10 15q-12 0 -12 -15zM520 204q7 0 11 3v15h-8q-13 0 -13 -9t10 -9zM419 258q-10 0 -13 -16h25q0 16 -12 16z" />
    <glyph glyph-name="grave.case" horiz-adv-x="250" 
d="M222 824l-30 -28l-111 72l-55 29l1 26l62 39z" />
    </font>
</defs>
</svg>
